<?xml version="1.0" standalone="no"?><!DOCTYPE svg PUBLIC "-//W3C//DTD SVG 1.1//EN" "http://www.w3.org/Graphics/SVG/1.1/DTD/svg11.dtd"><svg t="1520436049628" class="icon" style="" viewBox="0 0 1024 1024" version="1.1" xmlns="http://www.w3.org/2000/svg" p-id="1466" xmlns:xlink="http://www.w3.org/1999/xlink" width="32" height="32"><defs><style type="text/css"></style></defs><path d="M793.191752 958.14513c-6.705726 0-13.317307-2.938935-17.862833-8.219195L511.069303 641.583311 246.80764 949.924911c-6.381337 7.484462-16.781198 10.148128-25.987884 6.751774-9.230222-3.3984-15.383362-12.215206-15.383362-22.042016L205.436394 88.265276c0-12.971429 10.536984-23.51046 23.51046-23.51046l564.245921 0c12.947893 0 23.51046 10.539031 23.51046 23.51046l0 846.369394c0 9.827833-6.109138 18.643616-15.384385 22.042016C798.655184 957.685665 795.945469 958.14513 793.191752 958.14513zM511.069303 581.980841c6.863315 0 13.407358 3.03001 17.860786 8.220219l240.751203 280.882202L769.681292 111.821785 252.456291 111.821785l0 759.261477L493.20647 590.20106C497.661945 585.010851 504.204965 581.980841 511.069303 581.980841z" p-id="1467" fill="#d4237a"></path></svg>